<svg width="56" height="55" viewBox="0 0 56 55" fill="none" xmlns="http://www.w3.org/2000/svg">
<path d="M54.6268 22.8829L50.0933 19.0572V6.00011C50.0933 5.39603 49.6035 4.90636 48.9996 4.90636H41.9996C41.3956 4.90636 40.9058 5.39603 40.9058 6.00011V11.304L28.7049 1.00791C28.2975 0.664031 27.7015 0.664031 27.2942 1.00791L1.37233 22.8829C1.02135 23.1791 0.892724 23.663 1.05044 24.0944C1.20816 24.5257 1.61843 24.8126 2.07769 24.8126H4.15582V53.9064C4.15582 54.5105 4.6456 55.0001 5.24957 55.0001H50.7496C51.3535 55.0001 51.8433 54.5105 51.8433 53.9064V24.8126H53.9214C54.3807 24.8126 54.791 24.5257 54.9488 24.0944C55.1064 23.6631 54.9778 23.1791 54.6268 22.8829ZM43.0933 7.09386H47.9058V17.2113L43.0933 13.1501V7.09386ZM27.9996 3.27503L50.9295 22.6251H5.06965L27.9996 3.27503ZM49.6558 52.8126H6.34332V24.8126H49.6558V52.8126Z" fill="#19BCE4"/>
</svg>
