<svg width="56" height="56" viewBox="0 0 56 56" fill="none" xmlns="http://www.w3.org/2000/svg">
<path d="M53.4297 3.62392H50.5641V1.72627C50.5641 0.774375 49.7896 0 48.8378 0H7.1622C6.21042 0 5.43594 0.774375 5.43594 1.72627V3.62392H2.57031C1.15303 3.62392 0 4.77695 0 6.19423V9.1455C0 9.59864 0.367281 9.96581 0.820312 9.96581C1.27334 9.96581 1.64062 9.59864 1.64062 9.1455V6.19423C1.64062 5.68159 2.05767 5.26455 2.57031 5.26455H11.7542C12.2668 5.26455 12.6839 5.68159 12.6839 6.19423V14.4958H12.5981C12.1451 14.4958 11.7778 14.863 11.7778 15.3161C11.7778 15.7693 12.1451 16.1364 12.5981 16.1364H12.6839V24.438C12.6839 24.9506 12.2668 25.3677 11.7542 25.3677H2.57031C2.05767 25.3677 1.64062 24.9506 1.64062 24.438V16.1364H1.72627C2.1793 16.1364 2.54658 15.7693 2.54658 15.3161C2.54658 14.863 2.1793 14.4958 1.72627 14.4958H1.64062V12.4269C1.64062 11.9737 1.27334 11.6065 0.820312 11.6065C0.367281 11.6065 0 11.9737 0 12.4269V24.438C0 25.8553 1.15303 27.0083 2.57031 27.0083H4.52987V28.9916H3.53828C2.58639 28.9916 1.81202 29.766 1.81202 30.7179V32.5299C1.81202 33.4818 2.5865 34.2561 3.53828 34.2561H3.62392V40.4901L0.086625 47.5649C0.0837812 47.5707 0.0817031 47.5766 0.0789687 47.5824C0.0715313 47.5981 0.0644219 47.614 0.0579687 47.6303C0.0539219 47.6405 0.0503125 47.6507 0.0468125 47.6609C0.0416719 47.6756 0.03675 47.6903 0.0324844 47.7054C0.028875 47.718 0.0258125 47.7306 0.02275 47.7432C0.0196875 47.756 0.0168437 47.7688 0.0144375 47.7818C0.0115937 47.797 0.00940625 47.8122 0.0074375 47.8274C0.00601563 47.8383 0.00470312 47.8494 0.00371875 47.8604C0.0021875 47.8776 0.00153125 47.8948 0.00109375 47.9119C0.000875 47.9187 0 47.9252 0 47.9317V50.6497C0 51.6016 0.774375 52.3761 1.72627 52.3761H1.81202V54.2737C1.81202 55.2256 2.58639 56 3.53828 56H36.3252C36.7782 56 37.1455 55.6328 37.1455 55.1797C37.1455 54.7265 36.7782 54.3594 36.3252 54.3594H30.628C30.6294 54.3308 30.6323 54.3026 30.6323 54.2737V52.3761H52.5474V54.2737C52.5474 54.321 52.5089 54.3594 52.4617 54.3594H39.6064C39.1534 54.3594 38.7861 54.7265 38.7861 55.1797C38.7861 55.6328 39.1534 56 39.6064 56H52.4617C53.4136 56 54.188 55.2256 54.188 54.2737V52.3761H54.2737C55.2256 52.3761 56 51.6016 56 50.6497V47.9317C56 47.9252 55.9991 47.9187 55.999 47.9122C55.9986 47.895 55.9979 47.8778 55.9964 47.8606C55.9954 47.8495 55.994 47.8385 55.9927 47.8276C55.9907 47.8124 55.9885 47.7972 55.9857 47.782C55.9833 47.769 55.9804 47.7562 55.9774 47.7434C55.9744 47.7307 55.9712 47.7181 55.9676 47.7057C55.9634 47.6906 55.9584 47.6758 55.9533 47.6611C55.9497 47.6509 55.9461 47.6407 55.942 47.6305C55.9356 47.6142 55.9285 47.5984 55.921 47.5826C55.9183 47.5768 55.9162 47.5708 55.9134 47.5651L52.3761 40.4904V34.2563H52.4617C53.4136 34.2563 54.188 33.4819 54.188 32.53V30.718C54.188 29.7661 53.4136 28.9917 52.4617 28.9917H51.4701V27.0084H53.4297C54.847 27.0084 56 25.8554 56 24.4381V6.19423C56 4.77695 54.847 3.62392 53.4297 3.62392ZM7.07656 3.62392V1.72627C7.07656 1.67902 7.11506 1.64062 7.1622 1.64062H48.8377C48.8849 1.64062 48.9233 1.67912 48.9233 1.72627V3.62392H7.07656ZM46.2055 27.0084V28.9917H39.6922V27.0084H44.2458H46.1197H46.2055ZM53.8524 47.1114H30.6323V46.1198C30.6323 44.6684 29.4515 43.4875 28 43.4875H13.5042C12.0527 43.4875 10.8719 44.6684 10.8719 46.1198V47.1114H2.14758L4.95119 41.5041H51.0487L53.8524 47.1114ZM28.9917 39.8636H27.0083V37.8802H28.9917V39.8636ZM29.812 36.2395H26.188H18.8781C18.3655 36.2395 17.9484 35.8224 17.9484 35.3099V20.6901C17.9484 20.1775 18.3655 19.7605 18.8781 19.7605H37.1219C37.6345 19.7605 38.0516 20.1775 38.0516 20.6901V35.3099C38.0516 35.8224 37.6345 36.2395 37.1219 36.2395H29.812ZM39.6922 25.3678V23.3844H41.6755V24.4381C41.6755 24.7659 41.7378 25.0793 41.8502 25.3678H39.6922ZM41.8503 5.26455C41.7379 5.55308 41.6756 5.86644 41.6756 6.19423V21.7437H39.6922V20.6901C39.6922 19.2729 38.5392 18.1198 37.1219 18.1198H18.8781C17.4608 18.1198 16.3078 19.2729 16.3078 20.6901V21.7437H14.3245V6.19423C14.3245 5.86644 14.2622 5.55308 14.1498 5.26455H41.8503ZM14.3245 24.4381V23.3844H16.3078V25.3678H14.1497C14.2622 25.0791 14.3245 24.7659 14.3245 24.4381ZM11.7542 27.0084H16.3078V28.9917H9.79453V27.0084H9.88028H11.7542ZM6.1705 27.0084H8.15391V28.9917H6.1705V27.0084ZM3.45264 32.53V30.718C3.45264 30.6707 3.49114 30.6323 3.53828 30.6323H16.3078V32.6156H3.53828C3.49103 32.6156 3.45264 32.5772 3.45264 32.53ZM16.3078 34.2563V35.3099C16.3078 36.7271 17.4608 37.8802 18.8781 37.8802H25.3677V39.8636H5.26455V34.2563H16.3078ZM1.64062 50.6497V48.752H10.8719V50.7355H1.72627C1.67912 50.7355 1.64062 50.6971 1.64062 50.6497ZM3.45264 54.2737V52.3761H10.8719V54.2737C10.8719 54.3026 10.8748 54.3308 10.8763 54.3594H3.53828C3.49103 54.3594 3.45264 54.3209 3.45264 54.2737ZM19.7603 54.3594V52.3761H21.7437V54.3594H19.7603ZM22.5641 50.7355H18.9401H18.0031C17.9729 50.7355 17.9484 50.7108 17.9484 50.6808V48.8067C17.9484 48.7767 17.9729 48.752 18.0031 48.752H23.5011C23.5313 48.752 23.5558 48.7767 23.5558 48.8067V50.6808C23.5558 50.7108 23.5313 50.7355 23.5011 50.7355H22.5641ZM23.3844 54.3594V52.3761H23.5011C24.4359 52.3761 25.1964 51.6156 25.1964 50.6808V48.8067C25.1964 47.8719 24.4359 47.1114 23.5011 47.1114H18.0031C17.0683 47.1114 16.3078 47.8719 16.3078 48.8067V50.6808C16.3078 51.6156 17.0683 52.3761 18.0031 52.3761H18.1197V54.3594H12.5981C12.5509 54.3594 12.5125 54.3209 12.5125 54.2737V46.1198C12.5125 45.573 12.9573 45.1281 13.5042 45.1281H28C28.5468 45.1281 28.9917 45.573 28.9917 46.1198V54.2737C28.9917 54.321 28.9532 54.3594 28.906 54.3594H23.3844ZM54.3594 50.6497C54.3594 50.6971 54.3209 50.7355 54.2737 50.7355H30.6323V48.752H54.3594V50.6497ZM50.7355 39.8636H30.6323V37.8802H37.1219C38.5392 37.8802 39.6922 36.7271 39.6922 35.3099V34.2563H50.7355V39.8636ZM52.5474 30.718V32.53C52.5474 32.5772 52.5089 32.6156 52.4617 32.6156H39.6922V30.6322H52.4617C52.5089 30.6322 52.5474 30.6707 52.5474 30.718ZM49.8294 28.9916H47.8461V27.0083H49.8294V28.9916ZM53.4297 25.3678H50.6497H47.0258H46.1197H44.2458C43.7332 25.3678 43.3161 24.9507 43.3161 24.4381V16.1365H43.4019C43.8549 16.1365 44.2222 15.7694 44.2222 15.3162C44.2222 14.8631 43.8549 14.4959 43.4019 14.4959H43.3161V6.19434C43.3161 5.6817 43.7332 5.26466 44.2458 5.26466H53.4297C53.9423 5.26466 54.3594 5.6817 54.3594 6.19434V14.4959H54.2737C53.8207 14.4959 53.4534 14.8631 53.4534 15.3162C53.4534 15.7694 53.8207 16.1365 54.2737 16.1365H54.3594V24.4381C54.3594 24.9506 53.9423 25.3678 53.4297 25.3678Z" fill="#19BCE4"/>
</svg>
